<?xml version="1.0" encoding="UTF-8"?>
<svg version="1.1" xmlns="http://www.w3.org/2000/svg" width="151" height="202">
<path d="M0 0 C40.92 0 81.84 0 124 0 C124.33 8.58 124.66 17.16 125 26 C124.505 26.495 124.505 26.495 124 27 C110.14 27 96.28 27 82 27 C82 65.94 82 104.88 82 145 C77.67502717 145.86499457 74.13890693 146.12891673 69.765625 146.1328125 C69.08699402 146.13376923 68.40836304 146.13472595 67.70916748 146.13571167 C66.28381253 146.13638898 64.85845441 146.13456614 63.43310547 146.13037109 C61.24309472 146.12498301 59.05328595 146.13034818 56.86328125 146.13671875 C55.47656205 146.13605854 54.08984297 146.13477857 52.703125 146.1328125 C51.44145508 146.13168457 50.17978516 146.13055664 48.87988281 146.12939453 C46 146 46 146 45 145 C44.90421407 143.4818148 44.87811853 141.95917604 44.87974548 140.43797302 C44.87837082 139.45214233 44.87699615 138.46631165 44.87557983 137.4506073 C44.88097275 135.8149456 44.88097275 135.8149456 44.88647461 134.14624023 C44.88632858 133.00492645 44.88618256 131.86361267 44.8860321 130.68771362 C44.88673182 126.89465469 44.89452693 123.10164416 44.90234375 119.30859375 C44.90420772 116.68685432 44.90563172 114.06511454 44.90663147 111.44337463 C44.90974449 105.23498045 44.91795748 99.02660379 44.92798096 92.81821734 C44.93914301 85.75182559 44.94465278 78.68543301 44.94967639 71.61903465 C44.96014012 57.07934737 44.977739 42.53967393 45 28 C44.505 28.495 44.505 28.495 44 29 C43.34 28.67 42.68 28.34 42 28 C38.93757679 27.91288225 35.89813535 27.8845154 32.8359375 27.90234375 C31.92872955 27.9037587 31.02152161 27.90517365 30.08682251 27.90663147 C27.18284845 27.91223904 24.27895085 27.92479282 21.375 27.9375 C19.40885528 27.94251402 17.44270935 27.9470771 15.4765625 27.95117188 C10.6510121 27.96221094 5.82551903 27.97948065 1 28 C-1 24 -1 24 0 0 Z " fill="#000000" transform="translate(13,31)"/>
<path d="" fill="#000000" transform="translate(0,0)"/>
<path d="" fill="#000000" transform="translate(0,0)"/>
</svg>
